<?xml version="1.0" encoding="UTF-8"?>
<svg version="1.1" viewBox="0 0 1776 1200" width="444" height="300" xmlns="http://www.w3.org/2000/svg">
<path transform="translate(939,567)" d="m0 0h39l56 3 44 4 55 7 49 7 35 6 43 9 36 8 30 8 28 8 22 7 10 4 15 5 20 7 8 4 10 4 20 9 30 15 14 8 24 15 19 14 11 9 13 12 19 19 9 11 14 19 10 17 9 16 10 23 7 19 5 21 3 26v50l-5 22-6 20-9 20-11 21-12 17-11 13-22 22-11 9-12 9-17 11-27 14-19 7-42 12-22 3-16 1h-27l-31-3-49-10-33-8-29-9-31-10-19-7-40-15-22-9-16-6-20-8-8-4-28-11-16-7-20-8-28-11-36-13-17-6-26-7-29-7-12-2h-16l-25 10-66 25-39 14-25 8-31 9-46 12-41 7-23 2h-74l-20-2-31-7-32-11-17-7-18-10-15-10-14-11-10-9-8-7-12-13-11-15-10-16-12-22-9-21-5-15-4-6v-2h2l-2-36v-33l2-21 6-30 7-20 8-17 8-12 7-9 17-17 20-15 19-12 22-12 17-8 28-12 54-18 29-8 44-11 28-6 61-11 28-5 37-5 51-5 31-4 88-7 35-2zm7 13-33 2-57 2-53 4-73 7-65 9-67 11-38 8-35 8-30 8-39 12-28 10-29 12-26 13-19 11-12 8-14 11-21 21-8 11-8 15-11 34-5 24-2 23v17l2 24 5 25 11 33 8 16 9 14 8 11 12 14 25 25 19 14 19 11 25 12 25 8 36 8 20 3 18 1h46l17-1 36-7 29-6 30-8 25-8 26-8 24-9 21-7 61-24 15-6 21-8 17-7 10-5 31-13 27-11 37-15 32-12 15-6 41-14 25-8 57-15 33-6 32-3h34l29 3 20 4 19 6 18 8 3-1-4-8-10-13-15-16-13-13-8-7-15-12-16-11-17-10-26-13-20-8-24-8-18-5-24-4-28-3-18-1h-71l-46 3-29 3-34 6-46 11-22 7-28 11-21 9-25 13-18 11-16 11-16 13-10 8-11 10-8 7-8 8-3 2v2l-4 2-9 9-14 11-21 14-10 4h-12l-6-5-1-2v-9l8-18 8-14 9-12 10-13 2-6-4 2-8 7v2l-3 1-7 8-9 10-16 17-4 4v2h-2v2l-4 2-8 8-15 11-11 4h-7l-8-3-4-6v-14l4-10 8-12 10-13 7-7 9-13h-3l-11 9-14 10-16 9-16 7-14 2-12-1-8-4-6-8-1-2 1-9 7-12 11-12 9-8 14-10 19-14 19-13 24-15-2-4-13-16-10-13-1-3h11l5 4 8 11 11 14 5-1 21-10 15-7 24-8 27-8 24-4 26-2h31l33 2 27 4 23 6 28 8 18 6 16-2 39-7 40-5 50-3h62l30 2 30 4 34 7 23 8 26 11 16 8 21 12 12 8 14 10 16 13 13 12 8 8 1 2h2l2 4 9 10 12 17 10 18 7 12 1 7-8-4-15-10-17-8-27-9-23-5-27-4h-32l-38 5-32 6-37 9-33 10-41 14-62 24-27 11-20 8-33 13-12 5 3 3 21 7 31 9 50 17 15 6 26 10 14 6 17 6 15 6 12 5 20 8 13 5 12 5 15 6 13 5 18 7 10 4 36 12 5 3 34 10 37 10 25 5 33 5 16 2 25 1 26-2 37-6 20-6 26-11 23-12 16-11 14-11 8-8 2-1v-2l4-2 4-4v-2h2v-2h2l7-8 13-17 11-17 8-16 9-25 8-32v-46l-4-22-5-19-10-28-8-16-10-18-12-18-9-12-9-11-14-15-7-7-22-18-16-11-15-10-10-6-16-9-32-16-8-3-10-4-6-3-13-5-22-8-8-3-39-12-21-6-43-11-36-8-67-12-37-6-76-8-59-4-19-1zm-239 172-19 3-48 11-21 8-29 14-17 9-21 14-22 15-19 14-9 7-14 12-9 11-1 5 3 9 4 2 11-1 17-5 16-8 12-8 21-16 12-9 18-13 4-2 6 1 3 2-1 5-10 13-11 13-12 14-13 14-7 8-9 13-5 11v7l4 3 8-1 18-14 12-11 8-8 7-8 14-15 9-10 12-11 13-9 14-7 8-1-1 10-6 9-10 13-15 20-12 19-5 10-2 8 1 5 6-1 21-13 11-9 10-9 8-7 4-3v-2l4-2 17-17 8-7 16-13 33-22 21-12 31-15 27-11 26-8 7-3 1-2-20-5-61-12-21-2z" fill="#E21262"/>
<path transform="translate(939,567)" d="m0 0h39l56 3 44 4 55 7 49 7 35 6 43 9 36 8 30 8 28 8 22 7 10 4 15 5 20 7 8 4 10 4 20 9 30 15 14 8 24 15 19 14 11 9 13 12 19 19 9 11 14 19 10 17 9 16 10 23 7 19 5 21 3 26v50l-5 22-6 20-9 20-11 21-12 17-11 13-22 22-11 9-12 9-17 11-27 14-19 7-42 12-22 3-16 1h-27l-31-3-15-3v-2l-4-1-4-3-10-4-12-2-6-3 2-4 25 5 33 5 16 2 25 1 26-2 37-6 20-6 26-11 23-12 16-11 14-11 8-8h2v-2l7-6 1-2h2v-2h2l2-4 9-10 12-17 8-13 8-16 10-30 6-25v-46l-4-22-5-19-10-28-8-16-10-18-12-18-9-12-9-11-14-15-14-13-14-11-16-11-15-10-10-6-16-9-32-16-8-3-10-4-6-3-13-5-22-8-8-3-39-12-21-6-43-11-36-8-67-12-37-6-76-8-59-4-19-1h-37l-33 2-57 2-53 4-73 7-65 9-67 11-38 8-35 8-30 8-39 12-28 10-29 12-26 13-19 11-12 8-14 11-20 20-8 11-8 15-11 34-5 24-2 23v17l2 24 5 25 11 33 8 16 9 14 8 11 12 14 24 24 19 14 19 11 25 12 25 8 36 8 20 3 18 1h65l7 1 10-2h3l3-1-2 7-21 3-15 1h-74l-20-2-31-7-32-11-17-7-18-10-15-10-14-11-10-9-8-7-12-13-11-15-10-16-12-22-9-21-5-15-4-6v-2h2l-2-36v-33l2-21 6-30 7-20 8-17 8-12 7-9 17-17 20-15 19-12 22-12 17-8 28-12 54-18 29-8 44-11 28-6 61-11 28-5 37-5 51-5 31-4 88-7 35-2z" fill="#E21162"/>
<path transform="translate(720,740)" d="m0 0h31l21 1-1 2 1 3 3 2 1 3 3 2h-72l-19 3-48 11-21 8-29 14-17 9-21 14-22 15-19 14-9 7-14 12-8 10-1 5 2 9 10 1 19-5 16-7 15-10 21-16 12-9 18-13 4-2 6 1 4 3-1 5-10 13-11 13-12 14-13 14-7 8-9 13-5 11v7l3 2 8-1 18-14 12-11 7-7 7-8 14-15 9-10 7-7 14-11 19-10 6-1 2 1v10l-6 9-10 13-15 20-12 19-5 10-2 8v4l6-1 21-13 11-9 10-9 8-7 10-9 15-15 8-7 16-13 33-22h2l1 4 1 7-22 15-16 13-10 8-11 10-8 7-8 8-8 7-8 8-14 11-21 14-10 4h-12l-7-6-1-2v-9l8-18 8-14 9-12 10-13 3-6-11 9-7 8-28 30-5 6h-2v2l-8 7-9 8-14 9-7 2h-7l-8-3-4-5-1-2v-14l4-10 8-12 10-13 7-7 9-13-8 6-10 8-14 9-19 10-13 4-14 1-10-2-6-4-6-8-1-2 1-9 7-12 11-12 10-9 14-10 19-14 19-13 16-10 7-4-2-4-13-16-10-13v-3l3-1h8l6 5 8 11 10 13 5-1 21-10 15-7 24-8 27-8 24-4z" fill="#E20F60"/>
<path transform="translate(1382,637)" d="m0 0 10 3 29 10 8 4 10 4 20 9 30 15 14 8 24 15 19 14 11 9 13 12 19 19 9 11 14 19 10 17 9 16 10 23 7 19 5 21 3 26v50l-5 22-6 20-9 20-11 21-12 17-11 13-22 22-11 9-12 9-17 11-27 14-19 7-42 12-22 3-16 1h-27l-31-3-15-3v-2l-4-1-4-3-10-4-12-2-6-3 2-4 25 5 33 5 16 2 25 1 26-2 37-6 20-6 26-11 23-12 16-11 14-11 8-8h2v-2l7-6 1-2h2v-2h2l2-4 9-10 12-17 8-13 8-16 10-30 6-25v-46l-4-22-5-19-10-28-8-16-10-18-12-18-9-12-9-11-14-15-14-13-14-11-16-11-15-10-10-6-16-9-32-16-8-3-10-4-6-3-13-5-22-8-8-3-19-6 3-5h3l3 3h2v-2h3v2l7-1z" fill="#E21061"/>
<path transform="translate(1012,201)" d="m0 0 19 1 16 4 13 7 10 8 7 7 10 14 7 14 5 22 2 6 18 6 17 9 13 10 9 11 8 17 1 4v13l-7 13-9 10-10 7-15 6-14 3-13 2-3 24-4 15-6 14-7 11-7 9-9 8-14 7-12 4-7 1h-12l-12-2-19-7-11-6-10-9-8-9-9-15-5-11-5-16-4-25-4-31-1-12v-13l2-21 5-37 5-16 6-14 7-11 9-11 11-10 14-7 12-3zm-3 11-11 2-11 4-11 8-9 9-9 15-7 17-5 18-2 14-1 14v50l2 23 3 17 5 17 8 18 6 11 12 12 13 8 12 4 6 1h30l12-4 9-7 7-7 8-13 7-20 4-13 1-8v-17l25-4 19-5 12-6 6-7 2-5 1-14-2-12-6-10-10-10-13-8-21-8-11-2-1-2-1-15-3-10-8-19-6-11-9-9-13-8-12-5-16-3z" fill="#E21061"/>
<path transform="translate(939,567)" d="m0 0h39l56 3 44 4 55 7 49 7 35 6 43 9 36 8 30 8 28 8 22 7 7 4-1 3h-7v-2h-3v2l-3 1-2-4-3 1v3h-7l-25-8-55-14-36-8-67-12-37-6-76-8-59-4-19-1h-37l-33 2-57 2h-9l3-9-4-1v-2l2-1 43-3z" fill="#E01463"/>
<path transform="translate(835,573)" d="m0 0h11l1 2 3 1-2 7-1 2-19 2-79 7-35 4-61 9-50 8-39 8-26 6-29 7-4-1v-5h7l-3-3v-3l21-6 38-9 72-13 28-5 37-5 51-5 31-4z" fill="#C40A4F"/>
<path transform="translate(1023,1037)" d="m0 0h8l19 8 17 6 15 6 12 5 20 8 13 5 12 5 15 6 13 5 18 7 10 4 36 12 5 3 34 10 36 10 1 4 9 3 9 2 10 4 3 3 3 2-10-1-28-6-29-7-29-9-31-10-19-7-40-15-22-9-16-6-20-8-8-4-28-11-16-7-20-8-4-2 1-2 4 1v-2l-3-1z" fill="#C00A4D"/>
<path transform="translate(1191,875)" d="m0 0h8l-1 4-3 2 11-1v2l29-1-4 2-49 7-27 5-37 9-33 10-41 14-62 24-27 11-20 8h-2l-1-2-4 2-5 1-1-4-1 6-2-1-1-5 1-2 5-1v-3l27-11 37-15 32-12 15-6 41-14 25-8 57-15z" fill="#C00A4D"/>
<path transform="translate(1049,212)" d="m0 0h5l11 7v2l5 2 3 4 4 1 10 14 7 14 5 22 2 6 18 6 17 9 13 10 9 11 8 17 1 4v13l-7 13-9 10-10 7-15 6-14 3-14 1-2-7 1-3 5-2 24-5 13-5 8-6 4-8 1-14-2-12-6-10-9-9-13-8-21-8-11-2-2-3-1-15-3-10-8-19-6-11-8-8-8-5-1-3-3-3-3-4z" fill="#E20F60"/>
<path transform="translate(1321,844)" d="m0 0 7 6 3 3v2h2l18 22 13 21 9 17 2 4v5l-7-3-17-11-17-8-27-9-23-5-27-4-26-1-2-1-19 1-4-1v-2l-11 2v-3h3l2-5 23-2h34l29 3 20 4 19 6 18 8h2l-4-8-10-13-15-16-8-8 2-1 5 2h8l-2-2z" fill="#E21161"/>
<path transform="translate(939,567)" d="m0 0h39l56 3 13 1-4 4h-2l-1 3h-2v2l-5 2-1 1h-16l-33-2h-37l-33 2-57 2h-9l3-9-4-1v-2l2-1 43-3z" fill="#E21162"/>
<path transform="translate(1160,759)" d="m0 0h8l19 5 22 8 23 10 16 8 19 11 12 8 14 10 16 13 12 11v4l3 1-1 2h-9l-8-4-11-10-17-13-13-9-17-10-26-13-20-8-24-8-18-5-20-4v-2h17l2 1 2-2-2-3z" fill="#C20A4D"/>
<path transform="translate(981,278)" d="m0 0h11l-1 9-4 16-7 49-4 33 32-3 22-5 1 1 1 11-1 2-31 5-9 1h-20l-6-5-1-3v-14l5-33 5-26 5-36z" fill="#E11060"/>
<path transform="translate(1514,1133)" d="m0 0 4 2-3 3-15 6-23 7-25 7-22 3-16 1h-27l-31-3-15-3v-2l-4-1-4-3-10-4-12-2-6-3 2-4 25 5 33 5 16 2 25 1 26-2 18-3h10l4 2 12-1 9-3 7-2 5-4v2l9-4 7-1z" fill="#E11161"/>
<path transform="translate(1025,749)" d="m0 0h62l30 2 14 2 1 4-7 2-24 1-105 1-6-2-5-3-1 3h-9v-3l-4-2 4-2z" fill="#BF094C"/>
<path transform="translate(1262,605)" d="m0 0h7l27 6 30 8 28 8 22 7 7 4-1 3h-7v-2h-3v2l-3 1-2-4-3 1v3h-7l-25-8-55-14-28-6-2-1v-2h3v-2l-2-1h4l1 2 8 1 5 2-1-4-3-2z" fill="#C40C50"/>
<path transform="translate(1027,921)" d="m0 0 2 1 3 1v2l5 3v-3l4-2h3v3l3 1-29 11-36 14-27 11-20 8h-2l-1-2-4 2-5 1-1-4-1 6-2-1-1-5 1-2 5-1v-3l27-11 37-15 32-12z" fill="#E01261"/>
<path transform="translate(835,573)" d="m0 0h11l1 2 3 1-2 7-1 2-19 2-68 6h-19l-1-5-7 1-2-1v-3l5-2 28-3 23-3z" fill="#E11161"/>
<path transform="translate(911,998)" d="m0 0h7l33 10 44 15 15 6 18 7-3 2-2-1 1 4 2 1v2l-6 1-31-12-36-13-19-6-33-8-8-2 1-3 8-2 9 1z" fill="#C10E50"/>
<path transform="translate(856,999)" d="m0 0h6l-3 3-78 30-50 18-25 8-31 9-46 12-10 2h-7v-5l1-1h13l19-4 9-3 16-4 8-3 21-7 4-2 12-3 15-4 11-5 23-7 10-4 7-4 16-3 9-4 6-4 13-5 3-2 10-3 13-3z" fill="#BD074A"/>
<path transform="translate(765,742)" d="m0 0h19l27 4 23 6 25 7 1 5v5l-11-1-65-13-9-1v-3l-1-3-3-2v-3h-6z" fill="#E21262"/>
<path transform="translate(590,605)" d="m0 0h7l-2 1 1 2 4-1-1 3-6 1-1-3h-2l2 1-1 6h2l1-2 1 3-12 3-58 13-16 4-4-1v-5h7l-3-3v-3l21-6 38-9z" fill="#C20A4E"/>
<path transform="translate(965,753)" d="m0 0h7l4 3v2h8l1-2 5 2 6 2 105-1 26-1 5-1-1-4 21 3 11 2-3 3 2 3-4 2-1-1h-15l-2-1v2l-21-2-29-2h-71l-46 3-16 1-7-1-1-1h-8l-4-2v-2h-2v-3z" fill="#E01462"/>
<path transform="translate(601,1077)" d="m0 0h2l-2 7-21 3-15 1h-74l-20-2-12-3v-1l14-1 6 2h15l6 2-2-3v-3h82l7 1 10-2h3z" fill="#C0094C"/>
<path transform="translate(1191,875)" d="m0 0h8l-1 4-3 2 11-1v2l29-1-4 2-49 7-27 5-13 3h-7v-5l-9 1-6-2 3-2 25-6 16-4z" fill="#C00C4E"/>
<path transform="translate(1382,637)" d="m0 0 10 3 29 10 8 4 10 4 4 3v3l1 4-5 2-4 1-12-6-13-5-22-8-8-3-19-6 3-5h3l3 3h2v-2h3v2l7-1z" fill="#DF1A65"/>
<path transform="translate(929,758)" d="m0 0h6v2h2l1 2 4 1h7l1 1 7 1v1l-43 7-33 8h-7l5-4 1-2-7 1 2-4 3 1-3-5v-3l9 1z" fill="#C00C4E"/>
<path transform="translate(1306,1137)" d="m0 0 26 5 33 5 16 2 17 1v1l-14 1 9 1 1 5-1 2h-6l-1 1h-13l-23-3-9-2v-2l-4-1-4-3-10-4-12-2-6-3z" fill="#E21262"/>
<path transform="translate(922,963)" d="m0 0h2v2l-5 1 1 7 2-6 3 4 5-3 3 1v3l-31 12-11 5 16 6 7 2-3 1v2h-9l-8 2-5 1-12-2-14-1v-1h16v-3l2-2-2-3 4-3 6-1v-2l5-1-2-3-2 3-7-1v2h-4l-1 3-7-2 3-2 19-9z" fill="#E01463"/>
<path transform="translate(715,1044)" d="m0 0 4 1-3 2-5 2-2 3-8 2-16 6-7 2-8 3-16 4-9 3-19 4h-13v6l-12 1 1-4 1-2-5 3-4-1-7 2-7-1-2-2 36-7 29-6 30-8 25-8z" fill="#E21967"/>
<path transform="translate(1045,572)" d="m0 0h12l37 4 31 4 2 2-4 2h-4l1 4-10-2-3-1v-3h-2v-2l-5 1v4l-7-1 1-3h-4v2l-3 1h-53l-2-2 2-2h4v-2z" fill="#BE074A"/>
<path transform="translate(1210,873)" d="m0 0 61 2 14 2-1 2 5 2 1 3-1 1-19-1-4 1-9-1-26-1-2-1-19 1-4-1v-2l-11 2v-3h3l2-5z" fill="#DF4C83"/>
<path transform="translate(914 1e3)" d="m0 0 12 1 9 2 46 15 21 8 24 9 2 2-3 1-2-1v2h-3l-1-3-7-3-9-2v-2l-13-2-1 2-7-2 1-2-7-1-5-1v-2l-12-2-19-6-9-3-3-3-7-1-3-3-4-2z" fill="#E11060"/>
<path transform="translate(1089,580)" d="m0 0h6l-2 4h7l-1-4h6v2h2v3l12 2v-3l8-3 13 1 10 2-1 5h-2l-1 4-1 1-18-1-66-7-12-1v-1l41-1z" fill="#E21463"/>
<path transform="translate(1328,621)" d="m0 0 8 1 18 5 22 7 7 4-1 3h-7v-2h-3v2l-3 1-2-4-3 1v3h-7l-25-8-5-1-1-4 2-6z" fill="#C40C50"/>
<path transform="translate(1029,377)" d="m0 0 2 1 1 11-1 2-31 5-9 1h-19v-2l5-2 6 2 4-2h3l-2-4-4-4 30-4z" fill="#BE084B"/>
<path transform="translate(860,760)" d="m0 0 11 3 4 2 3 6v2l-4 1-1 2 7-1-2 4-2 2-4 2-18 5-9-1-11 1-4-1h-7l3-2 27-9 10-3 1-1-6-2 2-1-2-7z" fill="#E21866"/>
<path transform="translate(1195,596)" d="m0 0 9 2 7 1h6l2-1 1 5 4 1 1 3 11-1-1-3-2-1v-2h-7l-2-4 18 3 22 5-2 1 4 4v4l-5-1-8-1-2-3-1 1v2h-3v2l-29-5-26-5-4-3h9z" fill="#E11463"/>
<path transform="translate(1027,921)" d="m0 0 2 1 3 1v2l5 3v-3l4-2h3v3l3 1-29 11-36 14-2-2 3-6 6-3 8-5 6-2 3 1 1-3 9-2-1-4z" fill="#DF0F5F"/>
<path transform="translate(1255,1123)" d="m0 0 33 9 18 5 1 4 9 3 9 2 10 4 3 3 3 2-10-1-28-6-9-2-1-4h-2l-1-6-3-1-8-2-2-1 1 6-5 1-2-4h2l-1-3h-10l-3-1-1-5-5-1z" fill="#E11463"/>
<path transform="translate(1131,753)" d="m0 0 21 3 11 2-3 3 2 3-4 2-1-1h-15l-2-1v2l-21-2-29-2-63-1v-1l74-1 26-1 5-1z" fill="#DF1C67"/>
<path transform="translate(725,584)" d="m0 0h8l-2 1v3l9-1 1 1v5h8v1l-35 4-10 1v-7l-7 1-1 4-4-1 1-5-2-1-1-2z" fill="#E11966"/>
<path transform="translate(720,740)" d="m0 0h31l21 1-1 2 1 3 3 2 1 3 3 2h-11v-5l-19 1-16-1-10-3-5-2-16-1v-1z" fill="#E21362"/>
<path transform="translate(546,751)" d="m0 0h8l6 5 8 11 6 8v3l-5-2 2 4-4 2h-3l-10-13-11-14v-3z" fill="#E11261"/>
<path transform="translate(897,575)" d="m0 0 3 2v2h19l2-2 3 1 9-1 4 1 4-2h7l1 2 6-1h3l3 1 4-1h6 2 19l10 2 1-2h5l4 5-29-1h-37l-33 2h-20v-1l4-1-5-1 1-2z" fill="#E05388"/>
<path transform="translate(630,598)" d="m0 0h4l1 3h-6v5h-3l-1 3-4 2v1l-23 4h-3l-1-2-3 1 1-6-3-1h4v3l6-2 1-2-5 2 1-5z" fill="#DC1460"/>
<path transform="translate(835,573)" d="m0 0h11l1 2 3 1-2 7-1 2-6 1h-11l-3-1-1-3h-5v4h-2v-3h-4l-4-4v-3l13-2z" fill="#BE084B"/>
<path transform="translate(304,986)" d="m0 0 4 2 4 4v3l4 1 3 3v2h2v2h2v2h2v2h2l2 7 4 3v2l4 1 3 1 6 7 18 13 10 7 18 10 8 4 15 6 8 3-4 1-21-8-16-8-17-10-16-12-13-11-12-11-10-11-10-14z" fill="#BF0B4D"/>
<path transform="translate(1191,591)" d="m0 0h10l21 4 4 4 7 1v2l4 2-1 3-11 1-2-4-3-1-2-4-4 1h-8l-8-3-1 1v2h-10l-2-2 3-2z" fill="#BE074A"/>
<path transform="translate(1049,212)" d="m0 0h5l11 7v2l5 2 5 5v3h2l3 8-1 4h-4l-4-4-7-8-8-6-2-1-1-3-3-3-3-4z" fill="#BD0649"/>
<path transform="translate(1252,1123)" d="m0 0 3 1-1 1 4 1 1 5h13l1 4v4l4-1v-6l12 2 3 4-1 4h2l1 3-8-1-15-4-23-7-1-3 2-3h2z" fill="#BD074A"/>
<path transform="translate(775,808)" d="m0 0 4 2 2 2h3l-2 4v2l-19 10-5 3h-2l-3-8 2-4z" fill="#E21061"/>
<path transform="translate(836,753)" d="m0 0 23 6 1 5v5l-11-1-30-6 3-1v-2h8l4 2 1-4z" fill="#E11362"/>
<path transform="translate(770,579)" d="m0 0h9v3l-5 1h-10l-3 4h-2l-1 4-3 2h-14l-1-5-7 1-2-1v-3l5-2 28-3z" fill="#C30C50"/>
<path transform="translate(1012,927)" d="m0 0h3l3 4-9 1-3 3-6 1-10 5-2 2-5 2-3 8-10 4-4-1 3-3v-3l-4 2h-3v-3h2v-2l3-1h9v2h2l-2-5 6-4 9-4z" fill="#BF094C"/>
<path transform="translate(601,1077)" d="m0 0h2l-2 7-21 3h-22v-7l3-1h19l7 1 10-2h3z" fill="#BC0649"/>
<path transform="translate(1089,580)" d="m0 0h6l-2 4h7l-1-4h6v2h2v3l10 2 2 3-1 1h-10l-47-5-12-1v-1l41-1z" fill="#E01563"/>
<path transform="translate(1514,1133)" d="m0 0 4 2-3 3-15 6-23 7-15 4-4-1 8-5h3v-2l14-3 9-3 5-4v2l9-4 7-1z" fill="#BE074A"/>
<path transform="translate(645,595)" d="m0 0h5v3l-1 8-2 2-19 3h-8l1-2h4l1-4h2l1-4 5-1 1-3z" fill="#C90D53"/>
<path transform="translate(964,375)" d="m0 0h1v7h7l2 1 2-4v6h8l5 4 1 4-8 3-6-2-4 1-1 2-6-5-1-3z" fill="#E20E60"/>
<path transform="translate(797,745)" d="m0 0h8l19 4 12 4-1 5-1 3-12-2v2l-7-1v-3l5-2-5-2-3-1-2-3-3 1v-2h-3v2l-4-2z" fill="#C0084C"/>
<path transform="translate(412,655)" d="m0 0h2l-2 5h2v2h-2l1 6-16 7h-2v-2h-2l1-6-4 1-1-3z" fill="#E21362"/>
<path transform="translate(914 1e3)" d="m0 0 12 1 9 2 27 9 2 2 11 4-3 1-11-2-9-3-10-2v-2l-9-1-5-2-7-1-3-3-4-2z" fill="#DF4B82"/>
<path transform="translate(943,956)" d="m0 0 5 2-1 2-2-1-1 8-9 4h-2l-1-2-4 2-5 1-1-4-1 6-2-1-1-5 1-2 5-1v-3l7-3 11-2z" fill="#BF084B"/>
<path transform="translate(830,786)" d="m0 0 5 1 11-1h5v3l-20 7-7 1v-3h-9l-4 1-3-2 8-4 5-2z" fill="#BE074A"/>
<path transform="translate(1219,1111)" d="m0 0 9 2 8 4 17 5-2 5-3 3-1 2-8-2-4-4-5-2-5-9-6-3z" fill="#E01261"/>
<path transform="translate(1296,1135)" d="m0 0 10 2 1 4 9 3 9 2 10 4 3 3 3 2-10-1-28-6-7-2v-1l8-1-5-6z" fill="#BD084A"/>
<path transform="translate(716,747)" d="m0 0 17 1h35l1 4-1 1-60-1 3-4z" fill="#BC0548"/>
<path transform="translate(1476,679)" d="m0 0 6 1 5 3 9 3 13 8 5 5 3 2v2l-5 1-7-5-12-5-6-4v-4l-6-1v-2l-5-2z" fill="#BF074B"/>
<path transform="translate(1382,637)" d="m0 0 10 3 9 3v1h-6l1 6-3-1-1-4-6-1-1 3 6 4-3 1-8-3-19-6 3-5h3l3 3h2v-2h3v2l7-1z" fill="#E11966"/>
<path transform="translate(1240,599)" d="m0 0 20 4 4 2h-2l4 4v4l-5-1-8-1-2-3-1 1v2h-3v2l-6-1v-5l-1-5-5-1v-1z" fill="#DD447D"/>
<path transform="translate(265,817)" d="m0 0h1l1 25v51l-2-1-1-6-1-18v-33l1-14z" fill="#BF0B4D"/>
<path transform="translate(1593,1080)" d="m0 0 2 1-15 15-11 9-12 9-17 11-13 7-2-1 10-7 11-7 8-6h2l1-3 3-1 3-3 13-9 5-4h2l2-4h2l2-4z" fill="#BE0A4C"/>
<path transform="translate(911,998)" d="m0 0h7l8 3v1l-11-1 5 1 1 3 7 1 1 2h-11l-4 1-21-5 1-3 8-2 9 1z" fill="#DC1863"/>
<path transform="translate(807,793)" d="m0 0 6 1 7-1 4 1v3l2 1-14 6h-2l-1-4-5 1-3 2h-8l-1-2 1-2z" fill="#E21865"/>
<path transform="translate(1292,877)" d="m0 0 10 1 18 5 2 7-3 1-3-3v-2h-3v3h-7l-7-2-3-6-5-2z" fill="#BE084B"/>
<path transform="translate(929,758)" d="m0 0h6v2h2l1 2 4 1h7l1 1 7 1v1l-26 4-4-1 1-7h-17v-1z" fill="#BE094B"/>
<path transform="translate(546,751)" d="m0 0h8l6 5 4 6 1 7-2 5-5-5-2-5-5-5v-2h-5l-1-4z" fill="#BE074A"/>
<path transform="translate(1604,781)" d="m0 0 3 1 10 15 10 18 10 20v4l-3-1-8-17-7-14-9-14-6-10z" fill="#DF4B82"/>
<path transform="translate(892,980)" d="m0 0 2 4-5 1v2h-2l-1 2-4 1-2 2 2 3-3 1v3h-9v-3h2v-2l3-3-4 2-4-1 3-6h6l2 1 1-2h4v-2h7z" fill="#BC0548"/>
<path transform="translate(905,767)" d="m0 0h8l2 1h6l3-1 2 1v3l-20 4-16 4h-4v-2h3v-2l7-1 1-2h2l-1-4h6z" fill="#E01362"/>
<path transform="translate(956,576)" d="m0 0 5 2 4-1h6 2 19l10 2 1-2h5l4 5-61-2z" fill="#E05186"/>
<path transform="translate(860,571)" d="m0 0h5l-2 1 1 4-1 3-3 1-2 3h-2v2h-9l3-9-4-1v-2l2-1z" fill="#E21564"/>
<path transform="translate(1099,383)" d="m0 0h5l5 3 5 2 2 1 12-1-2 2-14 3-14 1-2-7 1-3z" fill="#BF074B"/>
<path transform="translate(1012,201)" d="m0 0 19 1 5 1-1 2-5 1v2h-8v-1l-8-1-5 1h-8l-6-1v-3z" fill="#DF4A82"/>
<path transform="translate(507,624)" d="m0 0h2v3l3 1v2l-6 1v5l-7 3-12 3 3-6 5-2 3-1v-2h2v-2h-8l3-2z" fill="#E11563"/>
<path transform="translate(1249,607)" d="m0 0 3 1 1 2 8 1 5 2 1-4v2l5 1-1 4 4-2 2-2h5v5h-2v3l-11-2-20-4-2-1v-2h3v-2l-2-1z" fill="#E2276F"/>
<path transform="translate(972,455)" d="m0 0 4 2 9 7 12 6 6 2v2l-7 1-5-2-2-3-6 1-4-2-1-2-3-1v-2h2v-2h-3l-3-5z" fill="#C10A4D"/>
<path transform="translate(765,742)" d="m0 0h19l7 2-1 5-1 1-7 1-1 1h-5l-2-4-3-2v-3h-6z" fill="#BD0649"/>
<path transform="translate(1386,643)" d="m0 0 4 1 6 6-1-6h6v2h2v2h2v6l-1 1h-9l-4-2v-2l-5-2-2-3z" fill="#BF094C"/>
<path transform="translate(519,621)" d="m0 0h5l-1 2h-2l-1 10-11 3-4-1v-5h7l-3-3v-3z" fill="#C00A4D"/>
<path transform="translate(1201,880)" d="m0 0h5v2l29-1-4 2-37 5h-3v-2l-2-1 4-2 2-2z" fill="#DC125F"/>
<path transform="translate(1401,644)" d="m0 0 12 3 8 3v1l-7 1 1 6-3 1h3v2l-5-1-11-4v-1l5-1 1-6h-2v-2h-2z" fill="#E21E69"/>
<path transform="translate(1163,885)" d="m0 0h2v2h19l3 2-32 6h-4l1-4z" fill="#E21D68"/>
<path transform="translate(1637,1016)" d="m0 0 1 3-13 25-12 17-7 9h-2l2-5 8-11 10-15 6-11 4-7z" fill="#BF0C4E"/>
<path transform="translate(957,754)" d="m0 0 4 1-2 4v4l-8 1-7-4-1 2h-3l-1-3-4-2z" fill="#E05186"/>
<path transform="translate(267,903)" d="m0 0 2 1v3h3l3 10 3 13v8l-3-3-8-23z" fill="#C0094C"/>
<path transform="translate(534,620)" d="m0 0h2l1 6-1 2 2 1-18 4v-7l1-3h3v2h2l1-2 4-2z" fill="#E21162"/>
<path transform="translate(925,761)" d="m0 0 4 1-1 7-2 1v-2l-11 1-9-2 1-3 3-2z" fill="#BE0549"/>
<path transform="translate(467,1081)" d="m0 0h6l6 2h15l5 3v1h-21l-17-3-2-2z" fill="#BE094B"/>
<path transform="translate(806,799)" d="m0 0 4 1-1 5-16 7-3-1h2v-2l-5-1 3-2 2-4h9z" fill="#BD0649"/>
<path transform="translate(968,356)" d="m0 0h1l1 19 1 4 1-3 4-3-1 12-1-2-9-1v-14l2-11z" fill="#BD0749"/>
<path transform="translate(1223,872)" d="m0 0h34l18 2v1h-42l-16-1v-1z" fill="#BE094B"/>
<path transform="translate(720,740)" d="m0 0h31l-4 2h-12l2 2-1 2-7 1-6-2-5-2-16-1v-1z" fill="#DF4D83"/>
<path transform="translate(304,986)" d="m0 0 4 2 4 4v3l4 1 3 3v2h2v2h2v2h2v2h2l2 7 4 3-1 3-10-10-7-8-10-13z" fill="#C10E50"/>
<path transform="translate(599,1074)" d="m0 0 7 1v2h-2v2h8l1 3-12 1 1-4 1-2-5 3-4-1-7 2-7-1-2-2z" fill="#DF4880"/>
<path transform="translate(496,628)" d="m0 0 4 1v2h-2v2l-7 4-2 3-5-1-1-5-4 1v-2h3v-2l6-2z" fill="#C0094C"/>
<path transform="translate(601,1077)" d="m0 0h2l-2 7-2-1v-1l-8 1h-11l-5-2-7 3-5-1-2-4h19l7 1 10-2h3z" fill="#E20D5F"/>
<path transform="translate(1160,759)" d="m0 0h6l1 2-2 1 2 6-2 2-10-1-15-3v-2h17l2 1 2-2-2-3z" fill="#BF0A4C"/>
<path transform="translate(1159,1089)" d="m0 0 6 1 9 4 11 4 4 3-5 2-4-1-3-3-7-2v3l-4-1-1-5-6-2z" fill="#E01361"/>
<path transform="translate(865,571)" d="m0 0h2l7 11-4 2h-14l4-5h3v-7z" fill="#BC0548"/>
<path transform="translate(1224,596)" d="m0 0 16 3-4 2 4 1 2 5v4l-13-1-5-1v-1l12-2-1-3-2-1v-2h-7z" fill="#E11E69"/>
<path transform="translate(273,833)" d="m0 0h1v28l1 23-2 1-2-10v-31l1-1z" fill="#E05488"/>
<path transform="translate(1639,847)" d="m0 0 3 1 6 16 4 16v2l-4-2-7-25-2-6z" fill="#DC427B"/>
<path transform="translate(1360,893)" d="m0 0 4 5 9 17 2 4v5l-7-3-2-2 1-7-5-12v-3h-2z" fill="#E05588"/>
<path transform="translate(694,742)" d="m0 0h7l-1 6-5 3h-4l-3-3-6-1 1-3z" fill="#BF094C"/>
<path transform="translate(1032,1038)" d="m0 0 9 3 13 5 15 6v3l-5-1-12-5-9-3v-2l-7-1-1-3-4-1z" fill="#E01F69"/>
<path transform="translate(1430,657)" d="m0 0 9 3 4 4 1 4-9 1-6-7z" fill="#BC0548"/>
<path transform="translate(1287,1133)" d="m0 0 9 1 8 8v2l-10 2-1-4h-2l-1-6-3-1z" fill="#E21162"/>
<path transform="translate(850,758)" d="m0 0 9 1 1 5v5l-11-1v-4-3z" fill="#C60A50"/>
<path transform="translate(1131,892)" d="m0 0 4 1v5l3 1-8 1h-11l-1-5h5l1-2h7z" fill="#E20F60"/>
<path transform="translate(558,618)" d="m0 0 5 2 1 3-21 5-2-1 3-6 8 1 3-3z" fill="#E11362"/>
<path transform="translate(519,1080)" d="m0 0h39l1 6-4-1v-2l-7-1-5 1h-9v-2l-12 1z" fill="#E21A67"/>
<path transform="translate(389,666)" d="m0 0 5 1-1 6h2v3l-6 3-4-1 2-6-3 1v-2l-2-1 6-3z" fill="#C0084C"/>
<path transform="translate(902,999)" d="m0 0 6 1 1 1v6l-13-2-3-1 1-3z" fill="#BE094C"/>
<path transform="translate(1006,473)" d="m0 0 30 1-1 2-15 2-1 2-3-1-10-5z" fill="#DF4D83"/>
<path transform="translate(700,859)" d="m0 0 2 1-8 8-6 5-6 7-8 7-7 6v-3l6-5 22-22z" fill="#C10D50"/>
<path transform="translate(772,820)" d="m0 0v3l-14 8h-2l-3-8 5-2 1 2h8z" fill="#C0084C"/>
<path transform="translate(1166,759)" d="m0 0 10 2-4 2-1 3 2 3v4l-8-2 1-5-2-4z" fill="#DF1362"/>
<path transform="translate(1038,484)" d="m0 0h5l-2 2-11 2h-12l-11-2v-1z" fill="#C21051"/>
<path transform="translate(1e3 1027)" d="m0 0 11 3 15 6-3 2-2-1v2h-3l-1-3-7-3-9-2z" fill="#E0437E"/>
<path transform="translate(1249,607)" d="m0 0 3 1 1 2 8 1 8 5v1l-10-1-12-3v-2h3v-2l-2-1z" fill="#CB0D54"/>
<path transform="translate(1480,1139)" d="m0 0h2l-1 3-8 3-4 3-7-1-5-2v-1l20-4z" fill="#E15B8D"/>
<path transform="translate(477,872)" d="m0 0 2 3 2 9 3 1-2 1-9-3-2-5 3-3h2z" fill="#BE094B"/>
<path transform="translate(1295,617)" d="m0 0 4 2v4h2v2l7-1-1-3 3-1 3 7 2 2-10-2-12-3 2-1z" fill="#E22B70"/>
<path transform="translate(697,592)" d="m0 0h7l1 6-5 2-9 1v-4h5z" fill="#C10A4E"/>
<path transform="translate(1654,958)" d="m0 0h1v9l-5 19-2 2v-12l5-13z" fill="#BF0B4D"/>
<path transform="translate(798,576)" d="m0 0h12l-4 4-3 2h-8l1-3-2-1v2l-5-1 2-2z" fill="#BD0649"/>
<path transform="translate(923,759)" d="m0 0 7 1 4 4v5l-7 1 1-8h-17v-1z" fill="#E3276F"/>
<path transform="translate(861,761)" d="m0 0 7 1 5 3 1 4-1 3-4 1 1-6h-5l-4-2z" fill="#C30B4F"/>
<path transform="translate(542,905)" d="m0 0 1 2-4 8-8 7h-4v-3h2v-2l4-2 1-2h2l2-4z" fill="#DF4B82"/>
<path transform="translate(442,648)" d="m0 0h4l2 6-12 5h-3v-2l7-5z" fill="#BF0B4D"/>
<path transform="translate(1035,571)" d="m0 0h12l-4 4h-2l-1 3-6 1-1-7z" fill="#DF4B82"/>
<path transform="translate(1e3 211)" d="m0 0h22l12 3-3 1-12-2h-12l-11 2-9 2 1-2 7-3z" fill="#C00E4F"/>
<path transform="translate(775,808)" d="m0 0 4 2 2 2h3l-2 4v2l-4 2-4-1h2v-2l-3 1-1-2 3-3v-2z" fill="#BF074B"/>
<path transform="translate(630,598)" d="m0 0h4l1 3h-6v5h-3l-1 3-5 1v-4h3l-1-5h2v-2z" fill="#E21363"/>
<path transform="translate(951,1011)" d="m0 0 11 1 2 2 11 4-3 1-11-2-9-3z" fill="#DF4B82"/>
<path transform="translate(1414,651)" d="m0 0 5 1 2 5v5l-6-1v-2h-3l1-2 2 1-2-6z" fill="#BE0549"/>
<path transform="translate(1364,638)" d="m0 0h3l3 3h2v-2h3l1 4-3 3-10-2-2-2 2-1z" fill="#E0266C"/>
<path transform="translate(1396,1153)" d="m0 0 1 2h-2v2l2-1h6l-1 4 2 1h-18l1-2 6 1 1-6z" fill="#BC0548"/>
<path transform="translate(1163,333)" d="m0 0 3 4 1 4v13l-3 4z" fill="#BD084A"/>
<path transform="translate(675,595)" d="m0 0 5 2-1 2-4-1-6 4h-2v2l-5 1 1-5h3v-2z" fill="#E1246C"/>
<path transform="translate(1448,664)" d="m0 0 15 7 3 2-4 2-4-1v-2l-5-2-3-1z" fill="#BC0548"/>
<path transform="translate(1144,320)" d="m0 0 5 5 3 5 3 11-1 11-2-4-1-13-6-12z" fill="#C21051"/>
<path transform="translate(1618,1050)" d="m0 0 1 3-10 13-3 4h-2l2-5 10-13z" fill="#BF0B4D"/>
<path transform="translate(571,612)" d="m0 0 2 2 2 4h-4v2l2 1-6 1-2-3 1-4z" fill="#E20F60"/>
<path transform="translate(1045,572)" d="m0 0h12l-4 3-3 2h-9v-2z" fill="#E21564"/>
<path transform="translate(939,567)" d="m0 0h39v1h-31v2l-4 2-1-4z" fill="#E05186"/>
<path transform="translate(561,1079)" d="m0 0h14v2l-7 3-5-1z" fill="#E1226B"/>
<path transform="translate(643,1065)" d="m0 0 3 1-1 2-12 3-9-1v-1z" fill="#E26090"/>
<path transform="translate(1303,891)" d="m0 0 11 1 8 1v2l4 1 2 3-11-3-14-4z" fill="#E26090"/>
<path transform="translate(1359,634)" d="m0 0h3l-1 8-7-1-3-2v-4h2v2z" fill="#E01563"/>
<path transform="translate(784,581)" d="m0 0h8l-1 2h-2v5l2 1-6 1v-4h-3z" fill="#BD0548"/>
<path transform="translate(1029,377)" d="m0 0 2 1v8h-2v-2l-11-3 4-2z" fill="#DC1E66"/>
<path transform="translate(1459,680)" d="m0 0 5 1 19 9 5 5-6-2-7-4-16-8z" fill="#E46B98"/>
<path transform="translate(873,572)" d="m0 0h7l3 1-1 5-7 2v-6h-2z" fill="#BC0548"/>
<path transform="translate(1170,587)" d="m0 0 7 2 3 6h-10l1-5h-2z" fill="#BC0548"/>
<path transform="translate(990,468)" d="m0 0 10 3 3 1v2l-7 1-5-2z" fill="#C10C4F"/>
<path transform="translate(980,939)" d="m0 0 2 1-5 4 1 4h-2v-2l-13 1 3-2z" fill="#E11C67"/>
<path transform="translate(1235,1118)" d="m0 0 7 1-1 4 3 1v3l-5-2-3-2v-2h-4v-2z" fill="#BD0649"/>
<path transform="translate(1241,794)" d="m0 0h4l2 3 3 1v2l-4 3-6-3 2-1z" fill="#E21262"/>
<path transform="translate(865,773)" d="m0 0h2l1 4-4 3h-5l-1-2 1-3z" fill="#BC0649"/>
<path transform="translate(1128,581)" d="m0 0 12 1 7 1 2 3-6 1-5-3h-7v-2z" fill="#DF5186"/>
<path transform="translate(770,579)" d="m0 0h9v3l-5 1h-9l-1-3z" fill="#C20D4F"/>
<path transform="translate(1012,1033)" d="m0 0 7 2 1 4h3l3 3v2l-6-1-4-6z" fill="#E30C5F"/>
<path transform="translate(963,1013)" d="m0 0 9 2 14 5-1 2-10-2v-2l-7-2-5-2z" fill="#CD2865"/>
<path transform="translate(935,758)" d="m0 0 5 1v3h3l1-3 7 4 4 2h-5l-1-1h-8l-4-2v-2h-2z" fill="#E30C5F"/>
<path transform="translate(715,1044)" d="m0 0 4 1-3 2-6 2-3 2-6-1v-2z" fill="#E36393"/>
<path transform="translate(1161,590)" d="m0 0 1 2 4 2 1 4-11-1 3-1z" fill="#DF4D84"/>
<path transform="translate(627,889)" d="m0 0h2l-2 5-7 11h-1v-5l6-9h2z" fill="#C00D4E"/>
<path transform="translate(797,745)" d="m0 0h8l7 2-4 3-1-2h-3v2l-4-2z" fill="#C30E51"/>
<path transform="translate(604,1073)" d="m0 0h4v2h5l-1 4-5 1-3-1v-2h2v-2l-4-1z" fill="#E20F60"/>
<path transform="translate(987,278)" d="m0 0h5l-1 9-2 5h-1z" fill="#BE084B"/>
<path transform="translate(1637,1016)" d="m0 0 1 3-8 16-2-1 1-4 5-9z" fill="#C10D4F"/>
<path transform="translate(1149,587)" d="m0 0 3 3v5l2 1-9-1 2-6h2z" fill="#E985AA"/>
<path transform="translate(1270,883)" d="m0 0 13 1 4 3h-8l-10-2z" fill="#CD0D55"/>
<path transform="translate(621,600)" d="m0 0 5 1-1 3-1-3h-2l1 5h-3l-1 4-3-5 3-1v-3z" fill="#BD0548"/>
<path transform="translate(603,1078)" d="m0 0 9 1 1 3-12 1 1-4z" fill="#DF4B82"/>
<path transform="translate(823,581)" d="m0 0 4 1v3l3 1-2 1h-8l1-5z" fill="#E21564"/>
<path transform="translate(1028,929)" d="m0 0 4 1-1 3-5 2h-6v-3l7-2z" fill="#BE0A4C"/>
<path transform="translate(1089,906)" d="m0 0h5v4l-3 2-4 1-2-4z" fill="#E21161"/>
<path transform="translate(569,772)" d="m0 0 4 1 1 5-5-2 2 4-4 2-2-1 1-3 2-3z" fill="#DE4980"/>
<path transform="translate(1088,275)" d="m0 0 2 3 1 16h-2l-1-2z" fill="#BC0548"/>
<path transform="translate(940,1006)" d="m0 0 8 1 12 4 1 2-13-3-8-3z" fill="#C40D51"/>
<path transform="translate(1041,923)" d="m0 0h3v3l3 1-9 3-1-5z" fill="#E21463"/>
<path transform="translate(537,915)" d="m0 0 1 3-1 7h-5l1-6z" fill="#C2064B"/>
<path transform="translate(1277,612)" d="m0 0h5v5h-2l-1 2-5-2 1-4z" fill="#E30C5F"/>
<path transform="translate(663,897)" d="m0 0 1 2h-2l-2 5-4 1-3-1v-2l6-3z" fill="#BE074A"/>
<path transform="translate(414,655)" d="m0 0h3l2 5-5 4h-2v-2h2v-2h-2z" fill="#BD0548"/>
<path transform="translate(1295,617)" d="m0 0 4 2v4h2v2l2 1-10-2 2-1z" fill="#E32B72"/>
<path transform="translate(981,568)" d="m0 0h19v1l-9 1-3 2-7-2z" fill="#E04E84"/>
<path transform="translate(976,393)" d="m0 0 7 2 3 1-1 1h-13v-2z" fill="#BC0548"/>
<path transform="translate(929,1007)" d="m0 0 8 2 5 1 1 3-11-2-3-2z" fill="#E30C5F"/>
<path transform="translate(1449,663)" d="m0 0 6 2 10 5v2l-7-2-9-5z" fill="#E21B67"/>
<path transform="translate(590,1076)" d="m0 0 2 1-5 4-7-1-2-2z" fill="#EEA4C0"/>
<path transform="translate(829,790)" d="m0 0h5l5 2-2 2-7 2z" fill="#E31B68"/>
<path transform="translate(839,755)" d="m0 0 8 1v3l-6 1-3-3z" fill="#C0074B"/>
<path transform="translate(590,605)" d="m0 0h7l-2 1 1 2 4-1-1 3-6 1-1-5z" fill="#BF094C"/>
<path transform="translate(1131,588)" d="m0 0 7 3v2h-11v-2z" fill="#C61053"/>
<path transform="translate(901,994)" d="m0 0 9 2 4 2h-3v2l-4-1-6-4z" fill="#E25C8E"/>
<path transform="translate(700,859)" d="m0 0 2 1-8 8-5 4-2-1 8-8z" fill="#C61958"/>
<path transform="translate(405,666)" d="m0 0 6 2-3 2-4 2h-3l2-5z" fill="#E05086"/>
<path transform="translate(655,593)" d="m0 0h7l1 3-10 1v-2l-3-1z" fill="#E01E68"/>
<path transform="translate(682,589)" d="m0 0h6v2l-7 2h-5v-3z" fill="#E1266D"/>
<path transform="translate(1064,913)" d="m0 0 2 1 2 3h5l-3 2-8 2 1-4z" fill="#E1216A"/>
<path transform="translate(1593,1080)" d="m0 0 2 1-11 11-1-3 4-2 2-4z" fill="#BD074A"/>
<path transform="translate(1306,1137)" d="m0 0 14 3v1l-9 1-5-2z" fill="#E25C8E"/>
<path transform="translate(763,1027)" d="m0 0 5 1-1 2-10 2-2-2z" fill="#E05186"/>
<path transform="translate(1429,655)" d="m0 0 6 1 8 4-4 1-10-5z" fill="#E1246C"/>
<path transform="translate(261,898)" d="m0 0 4 1-1 4v-3l-4 1-1-2z" fill="#D94079"/>
<path transform="translate(261,902)" d="m0 0" fill="#DF4B82"/>
</svg>
