<?xml version="1.0" encoding="UTF-8"?>
<svg version="1.1" viewBox="0 0 1044 1504" width="261" height="376" xmlns="http://www.w3.org/2000/svg">
<path transform="translate(436,371)" d="m0 0h9l9 2 12 6 10 2 5 5 5 8 11-6 17-9 15-5 10-2h10l8 3 4 5-2 6-7 8-10 9-13 10-15 13-11 9-14 13 1 4 15 11 8 7 4 6v8l-4 5-4 2h-15l-17-5-20-7-5 1-13 12-1 2h-2l-2 4-9 9-9 11-14 18-13 21-6 13-3 10v7l8 16 9 11 11 10 15 11 14 8 19 8 15 5 22 6 28 6 31 3 37 2h59l68 4 27 3 33 5 37 8 27 9 21 9 17 9 17 12 14 12 8 7 11 10v2h2l9 11 12 15 12 21 7 18 4 17 1 8v15l-3 15-6 16-8 13-9 11-11 11-14 11-18 14-19 14-13 9-19 12-15 7-9 3-6 1h-13l-10-4-9-7-2-3v95l2 103 1 66 3 90 3 33 2 9 5 5 11 9 6 8v6l-8 4-27 1h-40l-64-1-7-2-5-6-1-2-1-9-1-510-2-3-7-1h-52l-6 2-1 2-1 10-2 86-1 129-1 62-1 121-1 90-1 18-4 8-5 4-6 1h-133l-7-3-4-4v-6l6-7 19-9 6-5 2-5 2-355 2-169v-74l-2-4-14-5-35-12-23-10-16-8-15-8-21-14-16-12-18-18-11-14-10-16-8-17-6-18-3-13-1-9v-28l3-19 6-20 6-15 12-21 12-16 9-11 4-5 5-5 3-1 1-3 8-7 13-13h2l2-4h2l2-4h2l1-3 6-5 7-8 25-25 8-7 11-8 9-4zm-1 5-10 4-8 6-10 9-12 11-15 15-7 8-18 18-8 7-25 25-13 17-10 16-9 17-7 19-4 18-1 9v30l5 25 7 19 10 19 10 13 12 13 10 10 14 11 13 9 22 13 16 8 22 10 25 9 23 7 6 3 4 5 1 6-2 134v132l-1 86-1 50-1 192-2 7-9 8-18 8-4 4-1 4 4 3 5 1h134l5-3 1-2 1-20 1-59 2-93 1-126 1-63 1-110 1-46 2-5 4-4 9-2h52l7 2 5 5 1 3 1 516 2 5 5 2 13 1h118l4-2-1-5-13-12-5-4-3-5-3-18-2-31-4-120-2-136-1-107-2-13-8-15-12-13-11-9-4-5-1-5 8-4-2-4-8-11v-8l3-1h9l6 1-2-6-3-6 1-6 3-3 6-1 9 4 8 6 1-44 1-32 12 2 27 9 23 10 17 9 11 8 5 4 5 7 2 5-1 9-3 8-7 12-12 14-9 10-7 7-11 9-13 9-4 1-8-10-20-30-8-10-11-10-6-3h-6l-1 4 4 10 9 10 8 7 4 7-6-3-10-8-8-5-5-1h-8l1 7 9 12 10 7 10 6 5 5 2 6-5-1-12-9-9-7-6-2-4 2 6 7 15 13 7 9 6 12 4 17 2 9 6 8 8 6 12 3 12-1 14-5 17-9 12-8 14-10 19-14 14-11 16-13 12-11 8-10 7-12 6-17 2-16-1-17-3-16-6-16-9-17-8-11-8-10-9-11-11-11-11-9-9-8-17-12-17-10-19-8-30-10-25-6-26-5-38-5-43-3-103-1-35-3-30-4-28-6-25-8-20-8-16-8-13-9-13-11-9-10-8-13-4-9v-12l4-12 9-17 10-15 13-17 13-15 9-10 13-13 7-4 11 3 30 10h13l5-5-1-5-7-8-19-14-3-5 7-9 3-2v-2l4-2 14-13 22-18 17-14 5-6 1-3-2-3-3-1h-13l-18 4-16 8-15 9-2 2-1 18-5 14-7 9-9 3-7-2-7-6-1-4 3-7 9-11 12-10 7-4 1-4-5-8-3-3h-3l-3 12-8 15-7 8-12 8-7-1-4-6-1-5 3-10 7-10 8-7 10-6 2-2-4-3-8-2zm24 10-9 5-10 9-6 11-1 8 5 5 6-2 8-6 9-12 4-11v-6l-1-1zm22 18-9 6-9 7-8 11v7l5 4h9l7-6 4-8 3-11v-10zm311 401-1 2-1 20v55l14 19 18 27 6-1 13-11 14-12 3-3v-2h2l9-11 7-9 6-10 3-9-1-8-7-8-8-7-13-8-23-11-21-8-17-5z" fill="#FC218E"/>
<path transform="translate(611,880)" d="m0 0h52l7 2 6 6 1 3v506h-1l-1-15-3-1v19h-1l-1-510-2-3-7-1h-52l-6 2-1 2-1 10-2 86-1 129-1 62-1 121-1 90-1 18-4 8-5 4-6 1h-133l-7-3-4-4v-6l6-7 19-9 6-5 2-5 2-355h1v75h2l-1-18 1-20 1-5h2v80l-1 50-1 192-2 7-7 7-22 11h-2l-1 6 3 2 5 1h134l4-2 1-2 1-20 1-59 2-93 1-126 1-63 1-110 1-46 2-5 5-5z" fill="#FC228F"/>
<path transform="translate(532,15)" d="m0 0h19l18 6 13 7 12 11 6 7 6 10 5 14v15l-4 13-8 16-7 11-11 14-12 14-8 9-9 11-11 14 14 8 7 7 3 7v7l-3 7-5 6-5 3h-11l-6-4-4-5-3-8v-9l4-15-12 2-11 7-6 7-6 11-4 11-1 5v24l4 12 8 11-3 1-6-4-6-10-3-9-1-7v-10l3-16 7-16 8-11 8-7 10-5 15-2 8-10 18-22 11-12 13-16 11-18 6-14 2-11v-8l-3-13-6-11-7-8v-2l-4-2-10-8-13-6-8-2h-26l-16 4-16 8-9 7-6 5-9 11-7 10-5 10-2 11v12l2 9 2 6-2 1-4-4-4-11v-14l5-16 8-14 11-12 5-5 8-7 14-8 14-6zm7 177-3 3-3 13 1 10 4 6 3 3 8 1 5-3 5-6 1-8-3-7-5-5-9-6z" fill="#FC218E"/>
<path transform="translate(671,898)" d="m0 0h1l1 26h3v-10h1v483h-1l-1-15-3-1v19h-1z" fill="#FC77C2"/>
<path transform="translate(611,880)" d="m0 0h52l7 2 6 6 1 3v23l-1 10-4 1-1-27-2-10-1-1-7-1h-52l-6 2-1 2-1 10-2 86-1 129-1 7h-1l-1-9v-46l1-6h-2v30h-1v-43l1-110 1-46 2-5 5-5z" fill="#FC238F"/>
<path transform="translate(638,536)" d="m0 0h16l11 4 8 9 3 7 1 5v17l10 2 5 4 1 3v8l-5 5-5 3-17 1-8 11-7 8-5 4-5 2h-11l-10-5-5-5-5-8-2-5-1-13 2-11 2-7-5-5-6-5 1-6 4-6 10-9 10-5zm-4 5-10 3-10 6-7 7-2 6 7 6 4 3-1 8-2 7v18l3 8 7 8 7 3h12l8-5v-2h2l9-14 3-4h17l6-4 2-5-3-5-14-4v-18l-2-9-5-8-6-4-4-1z" fill="#FC1F8D"/>
<path transform="translate(470,1025)" d="m0 0h1v75h2l-1-18 1-20 1-5h2v80l-1 50-1 192-1-2h-2v-6-3-136l1-70v-60l-1 59h-1z" fill="#FC77C2"/>
<path transform="translate(471,1101)" d="m0 0 2 1v63l-1 67v135h1v5h-1l-1 5h2v7l-7 8-10 6-12 5-3 1-1 6 3 2 5 1h138l-1 2-144 1-5-2-1-2v-6l6-7 19-9 6-5 2-5 1-193 1-26z" fill="#FC3B9E"/>
<path transform="translate(470,1352)" d="m0 0h1l1 15h1v5h-1l-1 5h2v7l-7 8-10 6-12 5-3 1-1 6 3 2 5 1h138l-1 2-144 1-5-2-1-2v-6l6-7 19-9 6-5 2-5 1-27z" fill="#FC2692"/>
<path transform="translate(503,311)" d="m0 0h9l4 4 1 3v7l-6 6-8-1-10-8 2-5 6-5zm4 7-4 2 1 5 6 1 2-2v-6z" fill="#FC2390"/>
<path transform="translate(596,1028)" d="m0 0h1l1 48v39l-1 7h-1l-1-9v-54z" fill="#FC77C2"/>
<path transform="translate(440,1411)" d="m0 0 8 2h138l-1 2-144 1-2-1z" fill="#FC77C2"/>
<path transform="translate(471,1101)" d="m0 0 2 1v60l-2 5h-1z" fill="#FC198A"/>
</svg>
