<?xml version="1.0" encoding="UTF-8"?>
<svg version="1.1" viewBox="0 0 2048 940" width="592" height="272" xmlns="http://www.w3.org/2000/svg">
<path transform="translate(0)" d="m0 0h2048v940h-2048z" fill="#FEFEFE"/>
<path transform="translate(1290,101)" d="m0 0h178l54 3 64 6 60 8 44 8 36 8 27 7 25 8 37 13 32 13 25 12 16 9 17 11 16 11 12 9 11 10 8 7 12 12 9 11 12 17 15 27 8 19 6 18 5 19v34l-5 25-4 15-8 20-10 21-12 20-10 14-13 15-9 10-21 21-8 7-14 12-15 13-13 11-19 13-17 10-15 9-18 12-26 15-22 12-29 15-16 9-16 8-35 16-34 12-70 28-30 13-28 10-35 10-21 5-25 7-37 11-29 8-42 11-39 9-65 15-85 18-47 8-27 5-99 14-34 4-60 7-59 6-103 6-20 1-37 1h-35l-43-1-53-3-62-4-49-7-36-6-42-8-39-9-34-10-22-8-22-9-35-17-19-11-19-13-10-9-8-7-12-12-7-8-10-13-8-13-8-16-6-16-4-18-2-23v-18l2-20 4-16 8-22 7-16 8-15 10-16 10-14 11-14 7-7 7-8 5-6 8-7 14-13 8-7 14-12 15-15 20-15 13-9 19-12 21-12 10-8 22-14 19-10 15-8 20-9 46-23 28-13 21-9 18-8 20-9 37-15 23-8 19-7 20-7 22-8 29-10 47-15 55-15 64-16 49-11 48-9 39-6 58-7 24-2h22v6l-1 2-46 3-45 6-53 8-72 15-57 13-30 8-24 6-23 7-27 8-41 14-30 10-51 18-20 8-76 32-18 8-16 7-31 15-9 6-15 8-16 9-28 15-27 15-14 9-24 16-14 10-12 8-16 11-14 12-9 7-14 10-10 9-8 7-9 9-9 11-11 13-13 16-13 19-6 10-8 16-8 20-5 18-3 16-1 10v18l3 21 5 21 8 20 9 16 9 12 12 13 12 12 8 7 20 15 24 14 29 14 38 15 33 11 41 10 48 9 31 5 35 4 58 5 16 1 38 1h168l60-3 40-3 30-2 67-7 57-7 77-11 36-6 43-8 26-5 85-18 57-13 48-12 43-12 46-14 20-7 50-16 30-8 18-6 39-15 17-6 46-18 18-8 16-8 20-11 27-12 13-5 27-13 24-14 35-21 14-8 12-9 14-12 12-9 13-10 14-10 11-9 12-11 8-7 11-12 8-10 9-10 13-18 9-14 9-17 9-24 4-15 4-24 1-11v-10l-3-25-4-15-8-21-14-27-13-18-9-10-14-16-8-7-13-11-13-9-13-7-14-10-13-8-19-10-29-12-22-8-41-13-28-8-31-7-29-6-37-6-39-5-72-7-63-3h-167l-59 3-108 8-63 6-21 3-72 9-28 5-44 7-43 8-43 7-44 9-31 6-24 6-37 8-17 5-36 9-29 8-24 6-25 7-27 7-18 6-24 7-19 7-30 10-38 13-19 7-21 8-28 11-22 10-12 5-36 16-18 10-26 12-22 12-24 13-26 16-23 16-13 10-17 14-15 14-5 2-1-1 1-7 9-10 15-13 17-13 18-13 14-9 27-16 21-13 14-9 16-9 23-11 26-10 35-16 32-13 26-10 25-9 35-13 43-15 35-11 34-10 73-20 49-13 46-11 60-13 56-11 37-7 49-9 61-10 50-7 88-10 66-6 53-4 50-3z" fill="#F91385"/>
</svg>
